inDegrees=yes
name=ik_lifting_orientations
DataType=double
version=3
OpenSimVersion=4.5-2024-01-10-34fd6af
endheader
time	pelvis_tilt	pelvis_list	pelvis_rotation	pelvis_tx	pelvis_ty	pelvis_tz	hip_flexion_r	hip_adduction_r	hip_rotation_r	knee_angle_r	knee_angle_r_beta	ankle_angle_r	subtalar_angle_r	mtp_angle_r	hip_flexion_l	hip_adduction_l	hip_rotation_l	knee_angle_l	knee_angle_l_beta	ankle_angle_l	subtalar_angle_l	mtp_angle_l	lumbar_extension	lumbar_bending	lumbar_rotation	arm_flex_r	arm_add_r	arm_rot_r	elbow_flex_r	pro_sup_r	wrist_flex_r	wrist_dev_r	arm_flex_l	arm_add_l	arm_rot_l	elbow_flex_l	pro_sup_l	wrist_flex_l	wrist_dev_l
0.44	-0.9844298311527307	-9.482525146453321	-87.959833032177	0	0.9399999998679526	0	46.32893235502971	-9.560853851706701	0	60.65681487703606	1.058661133376959	-4.597954308762741	0	0	46.32893235502971	-9.560853851706701	0	60.65681487703606	1.058661133376959	-4.597954308762741	0	0	-14.86385967082901	0.2323290763863881	-3.17688607062851	-3.552182546248854	-0.9567143597439471	12.05481577018339	23.00190246506419	0.9382086517933668	0	0	0	-11.92846306983458	0	89.16464610501677	0.9382086517933668	0	0
0.45	-1.002556270574687	-10.4288202704911	-88.01864010325494	0	0.9399999998679526	0	46.31568048278505	-9.571215469131049	0	60.65027366476621	1.058546967685778	-4.609259189692121	0	0	46.31568048278505	-9.571215469131049	0	60.65027366476621	1.058546967685778	-4.609259189692121	0	0	-16.84060656074512	-0.03868158366816366	-2.965996871040485	-2.103121842490067	-1.444475798222818	11.53502616015846	25.14983687387752	0.9310219305459745	0	0	0	-11.94718703877753	0	89.17104361121325	0.9310219305459745	0	0
0.46	-1.040271086330535	-11.46732291320933	-88.13746783218306	0	0.9399999998679526	0	46.30171736195638	-9.581903230947189	0	60.64335944208777	1.058426291734823	-4.620839976271853	0	0	46.30171736195638	-9.581903230947189	0	60.64335944208777	1.058426291734823	-4.620839976271853	0	0	-19.09649496212035	-0.2885497497045351	-2.691593583054076	-0.5530551147698515	-2.165882153702474	10.99351445610733	27.56027643092315	0.9234208711288306	0	0	0	-11.96704191868531	0	89.17780995717766	0.9234208711288306	0	0
0.47	-1.060604026902024	-12.49016359202252	-88.24811802557045	0	0.9399999998679526	0	46.28866528993975	-9.591736859283644	0	60.63689085621168	1.058313393613337	-4.631440890348369	0	0	46.28866528993975	-9.591736859283644	0	60.63689085621168	1.058313393613337	-4.631440890348369	0	0	-21.32162626620649	-0.5666481327637457	-2.234125128756159	0.9403965178821069	-3.1164950118243	10.18694181175552	30.20615256954104	0.9162959737450298	0	0	0	-11.98568836736566	0	89.18415243266467	0.9162959737450298	0	0
0.48	-1.063937844687513	-13.60522018782185	-88.36776745680767	0	0.9399999998679526	0	46.27603534001613	-9.601121200797282	0	60.63063046517258	1.058204129177243	-4.641511328109075	0	0	46.27603534001613	-9.601121200797282	0	60.63063046517258	1.058204129177243	-4.641511328109075	0	0	-23.65479931315199	-0.8959491939634415	-1.857403470978705	2.357239777033708	-4.190474415070497	9.265866423121459	33.19194350621468	0.9093850137622383	0	0	0	-12.00380419813579	0	89.19030446564271	0.9093850137622383	0	0
0.49	-1.067989251998968	-14.73035904870654	-88.49570160886852	0	0.9399999998679526	0	46.26307590022841	-9.610609856782183	0	60.62420363606677	1.058091959848883	-4.651644427417753	0	0	46.26307590022841	-9.610609856782183	0	60.62420363606677	1.058091959848883	-4.651644427417753	0	0	-26.11796683570075	-1.282869473381338	-1.417519189283927	3.753022215755734	-5.366266350697484	8.375528989677354	36.56127949228084	0.9022758451341811	0	0	0	-12.02247146892632	0	89.19663294239672	0.9022758451341811	0	0
0.5	-1.081707241472131	-15.80306149893382	-88.5580798391039	0	0.9399999998679526	0	46.24996864150776	-9.62009774753097	0	60.61771147849998	1.057978650323784	-4.661737202348331	0	0	46.24996864150776	-9.62009774753097	0	60.61771147849998	1.057978650323784	-4.661737202348331	0	0	-28.47825914178266	-1.65261807782541	-0.9936920408754466	4.941202588530244	-6.53961411163847	7.306462495694753	40.13071847849299	0.8950721819936382	0	0	0	-12.04141017620423	0	89.20304553777193	0.8950721819936382	0	0
0.51	-1.100566942479074	-16.93968257051467	-88.62443758319576	0	0.9399999998679526	0	46.2379641074347	-9.628677319523186	0	60.61176627924603	1.057874887022116	-4.670826193032307	0	0	46.2379641074347	-9.628677319523186	0	60.61176627924603	1.057874887022116	-4.670826193032307	0	0	-30.88788879805626	-2.026988276981476	-0.5869077162118285	6.117818154472028	-7.805544346644927	6.447965656742547	43.82515044953608	0.888459818780324	0	0	0	-12.05882076138509	0	89.20893176773747	0.888459818780324	0	0
0.52	-1.087438592546064	-18.06007242132324	-88.5715806768241	0	0.9399999998679526	0	46.22617619671377	-9.637009280577749	0	60.60593327902573	1.057773081963002	-4.679619970187667	0	0	46.22617619671377	-9.637009280577749	0	60.60593327902573	1.057773081963002	-4.679619970187667	0	0	-33.28995014982772	-2.304607683424221	-0.2444110628979004	7.084355379446773	-9.419748637731189	5.497130645120917	47.97908952442793	0.8819547879748275	0	0	0	-12.07596983789812	0	89.21472245282904	0.8819547879748275	0	0
0.53	-1.03182452963414	-19.0221502957638	-88.49534221518005	0	0.9399999998679526	0	46.21507806611915	-9.644768264449896	0	60.60044614238063	1.057677313362038	-4.687778796338416	0	0	46.21507806611915	-9.644768264449896	0	60.60044614238063	1.057677313362038	-4.687778796338416	0	0	-35.51543164713745	-2.700499906743292	0.2701909927230204	7.909270541854841	-11.02805558811256	4.315707713764102	52.38472166544363	0.8758192333369108	0	0	0	-12.09216455940996	0	89.22018423634717	0.8758192333369108	0	0
0.54	-1.008268749726652	-19.83802097971821	-88.43730571505782	0	0.9399999998679526	0	46.20654976321113	-9.650694627094058	0	60.59623939942902	1.057603891846748	-4.693997277328948	0	0	46.20654976321113	-9.650694627094058	0	60.59623939942902	1.057603891846748	-4.693997277328948	0	0	-37.56369829179542	-3.095412190295876	0.80895779633015	9.606866337905931	-12.28776727117936	3.382638244294528	56.13246115384477	0.8710999609014185	0	0	0	-12.10462853675006	0	89.22438526587914	0.8710999609014185	0	0
0.55	-1.001133843339054	-20.68604535331139	-88.37983604342431	0	0.9399999998679526	0	46.19766713479693	-9.656839548279608	0	60.59186892464421	1.057527612671877	-4.700433469966113	0	0	46.19766713479693	-9.656839548279608	0	60.59186892464421	1.057527612671877	-4.700433469966113	0	0	-39.53505411173007	-3.5033651776115	1.323909584287583	10.90258176798169	-13.42854788039113	2.379361120061882	59.99547478420704	0.8661818626405023	0	0	0	-12.11762179304483	0	89.2287632875165	0.8661818626405023	0	0
0.5600000000000001	-0.9530794029999142	-21.49053088429901	-88.1992797795361	0	0.9399999998679526	0	46.18922185199462	-9.66264403115559	0	60.58772031112917	1.057455205706647	-4.706498717506881	0	0	46.18922185199462	-9.66264403115559	0	60.58772031112917	1.057455205706647	-4.706498717506881	0	0	-41.4051315540034	-3.873193293536789	1.761042176377961	12.09046508083579	-14.62504110071556	1.346811752663401	64.0101637016833	0.8615013385656667	0	0	0	-12.12999511103003	0	89.23292982428075	0.8615013385656667	0	0
0.57	-0.8598478432890239	-22.30476065204198	-87.85933263115213	0	0.9399999998679526	0	46.18213368943104	-9.667461580318967	0	60.58423562924932	1.057394386534459	-4.711514171282391	0	0	46.18213368943104	-9.667461580318967	0	60.58423562924932	1.057394386534459	-4.711514171282391	0	0	-43.31444604662031	-4.255242150003381	2.260565688455576	14.06970267104304	-15.56485834467726	0.2739836609551176	67.33024323821724	0.8575653395607215	0	0	0	-12.1404139587526	0	89.23643359583632	0.8575653395607215	0	0
